<svg enable-background="new 0 0 200 200" viewBox="0 0 200 200" xmlns="http://www.w3.org/2000/svg"><g fill="#222"><circle cx="5" cy="2" r="2"/><circle cx="32" cy="2" r="2"/><circle cx="59" cy="2" r="2"/><path d="m0 20h64v3h-64z"/><path d="m38 41.3-6 6-6-6-6 6-6-6-6.7 6.7.7.7 6-6 6 6 6-6 6 6 6-6 6 6 6-6 6 6 .7-.7-6.7-6.7-6 6z"/><path d="m0 61h2v58h-2z"/><path d="m0 141h200v1h-200z"/><path d="m0 121h200v2h-200z"/><path d="m100.5 160.8-8.2 8.2h-92.3v1h92.3l8.2 8.2 8.2-8.2h91.3v-1h-91.3zm0 16-7.3-7.3 7.3-7.3 7.3 7.3z"/><path d="m0 189h85v1h-85z"/><path d="m116 189h84v1h-84z"/><path d="m100.5 185c-2.5 0-4.5 2-4.5 4.5s2 4.5 4.5 4.5 4.5-2 4.5-4.5-2-4.5-4.5-4.5zm0 8c-1.9 0-3.5-1.6-3.5-3.5s1.6-3.5 3.5-3.5 3.5 1.6 3.5 3.5-1.6 3.5-3.5 3.5z"/></g></svg>