<?xml version="1.0" encoding="utf-8"?>
<!-- Generator: Adobe Illustrator 24.3.0, SVG Export Plug-In . SVG Version: 6.00 Build 0)  -->
<svg version="1.1" id="Layer_1" xmlns="http://www.w3.org/2000/svg" xmlns:xlink="http://www.w3.org/1999/xlink" x="0px" y="0px"
	 viewBox="0 0 200 200" style="enable-background:new 0 0 200 200;" xml:space="preserve">
<style type="text/css">
	.st0{fill:#222222;}
	.st1{fill:#BBBBBB;}
</style>
<g>
	<circle class="st0" cx="15" cy="2" r="2"/>
	<circle class="st0" cx="32" cy="2" r="2"/>
	<circle class="st0" cx="49" cy="2" r="2"/>
	<rect y="20" class="st0" width="64" height="3"/>
	<polygon class="st0" points="38,41.3 32,47.3 26,41.3 20,47.3 14,41.3 7.3,48 8,48.7 14,42.7 20,48.7 26,42.7 32,48.7 38,42.7 
		44,48.7 50,42.7 56,48.7 56.7,48 50,41.3 44,47.3 	"/>
	<rect y="61" class="st0" width="2" height="58"/>
	<rect y="141" class="st0" width="200" height="1"/>
	<rect y="121" class="st0" width="200" height="2"/>
	<path class="st0" d="M100.5,160.8l-8.2,8.2H0v1h92.3l8.2,8.2l8.2-8.2H200v-1h-91.3L100.5,160.8z M100.5,176.8l-7.3-7.3l7.3-7.3
		l7.3,7.3L100.5,176.8z"/>
	<rect y="189" class="st0" width="85" height="1"/>
	<rect x="116" y="189" class="st0" width="84" height="1"/>
	<path class="st0" d="M100.5,185c-2.5,0-4.5,2-4.5,4.5s2,4.5,4.5,4.5s4.5-2,4.5-4.5S103,185,100.5,185z M100.5,193
		c-1.9,0-3.5-1.6-3.5-3.5s1.6-3.5,3.5-3.5s3.5,1.6,3.5,3.5S102.4,193,100.5,193z"/>
</g>
</svg>
