<svg viewBox="0 0 126 28" xmlns="http://www.w3.org/2000/svg"><g fill="#666"><path d="m18.934 21.2h-1.034v-13.759l1.03-.295zm4.747-9.8.809.644-3.422 4.066 4.011 4.674-.81.625-4.452-5.28z"/><path d="m30.15 15.738h2.189v-.773c0-1.839-.717-2.667-2.226-2.667a6.8 6.8 0 0 0 -2.631.607l-.313-.809a6.768 6.768 0 0 1 3-.718c2.153 0 3.2 1.214 3.2 3.606v6.216h-.81l-.166-1.2a5.49 5.49 0 0 1 -3.33 1.269 2.412 2.412 0 0 1 -2.63-2.569c0-1.968 1.288-2.962 3.717-2.962zm2.189 3.331v-2.521h-2.039c-1.914 0-2.778.607-2.778 2.042 0 1.215.588 1.8 1.711 1.8a5.037 5.037 0 0 0 3.106-1.321z"/><path d="m37.235 21.2h-1.03v-13.759l1.03-.295zm4.747-9.8.81.644-3.422 4.062 4.01 4.674-.809.625-4.453-5.28z"/><path d="m48.451 15.738h2.19v-.773c0-1.839-.718-2.667-2.227-2.667a6.8 6.8 0 0 0 -2.631.607l-.312-.809a6.764 6.764 0 0 1 3-.718c2.153 0 3.2 1.214 3.2 3.606v6.216h-.81l-.165-1.2a5.492 5.492 0 0 1 -3.331 1.269 2.412 2.412 0 0 1 -2.631-2.569c0-1.968 1.289-2.962 3.717-2.962zm2.19 3.331v-2.521h-2.041c-1.913 0-2.778.607-2.778 2.042 0 1.215.589 1.8 1.711 1.8a5.042 5.042 0 0 0 3.108-1.321z"/><path d="m62.355 16.364c0 3.275-1.527 5.023-4.14 5.023s-4.139-1.748-4.139-5.023c0-3.311 1.564-4.986 4.139-4.986 2.558 0 4.14 1.675 4.14 4.986zm-7.193 0c0 2.649 1.122 4.066 3.053 4.066s3.055-1.417 3.055-4.066c0-2.631-1.122-4.03-3.055-4.03s-3.053 1.399-3.053 4.03z"/><path d="m71.134 18.2h-4.121l-.736 3h-2.777l4.119-13.024h3l4.139 13.024h-2.87zm-3.625-1.95h3.11l-1.546-6z"/><path d="m81.583 11.654v-4.176l2.465-.442v14.164h-1.711l-.294-.828a4.019 4.019 0 0 1 -2.687 1.085c-2.539 0-3.845-1.785-3.845-5.151 0-3.128 1.582-5.1 4.25-5.1a3.563 3.563 0 0 1 1.822.448zm0 7.157v-5.482a4.657 4.657 0 0 0 -1.38-.184c-1.417 0-2.19 1.158-2.19 3.293 0 1.968.626 3.053 1.785 3.053a2.907 2.907 0 0 0 1.785-.68z"/><path d="m94.222 15.9h-4.93v5.3h-2.7v-13.024h8.077v2.153h-5.377v3.459h4.93z"/><path d="m96.247 8.343 1.8-1.822 1.8 1.822-1.8 1.8zm3.035 3.164v9.7h-2.465v-9.7z"/><path d="m100.774 11.691 1.546-.184v-1.95l2.5-.534v2.484h2.907v1.858h-2.907v4.214c0 1.508.387 1.784 1.1 1.784a4.8 4.8 0 0 0 1.6-.331l.57 1.729a5.918 5.918 0 0 1 -2.833.718c-2.042 0-2.943-1.251-2.943-3.735v-4.379h-1.546z"/></g></svg>