<svg viewBox="0 0 170 28" xmlns="http://www.w3.org/2000/svg"><g fill="#666"><path d="m87.732 7.443-4.968 13.174h1.877l1.287-3.568h5.541l1.269 3.568h1.877l-4.967-13.174zm-1.232 8.022 2.152-5.944h.075l2.153 5.944z"/><path d="m102.417 11.6.073 1.252h-.073a3.142 3.142 0 0 0 -1.224-1.1 3.819 3.819 0 0 0 -1.851-.442 3.962 3.962 0 0 0 -3.016 1.379 4.865 4.865 0 0 0 -1.269 3.423 4.86 4.86 0 0 0 1.269 3.422 3.961 3.961 0 0 0 3.016 1.381 3.837 3.837 0 0 0 1.849-.442 3.116 3.116 0 0 0 1.224-1.105h.073v1.252h1.621v-13.177h-1.692zm-.765 6.881a2.761 2.761 0 0 1 -4.056-.009 3.29 3.29 0 0 1 -.848-2.364 3.293 3.293 0 0 1 .848-2.364 2.759 2.759 0 0 1 4.056-.009 3.312 3.312 0 0 1 .838 2.373 3.312 3.312 0 0 1 -.838 2.374z"/><path d="m140.17 15.447-1.784-.423q-1.2-.276-1.2-1.049a.949.949 0 0 1 .514-.846 2.415 2.415 0 0 1 1.27-.313 2 2 0 0 1 2.062 1.2l1.472-.607a3.06 3.06 0 0 0 -1.344-1.556 4.542 4.542 0 0 0 -4.646.2 2.272 2.272 0 0 0 -1.057 1.94 2.023 2.023 0 0 0 .771 1.666 4.342 4.342 0 0 0 1.638.836l1.823.442q1.233.314 1.231 1.2a1.072 1.072 0 0 1 -.5.92 2.228 2.228 0 0 1 -1.3.35 2.5 2.5 0 0 1 -2.448-1.693l-1.508.626a4.363 4.363 0 0 0 1.444 1.84 4.049 4.049 0 0 0 2.492.735 3.918 3.918 0 0 0 2.557-.81 2.508 2.508 0 0 0 .993-2.023 2.434 2.434 0 0 0 -.607-1.62 3.363 3.363 0 0 0 -1.873-1.015z"/><path d="m99.342 20.912h-.001z"/><path d="m130.492 11.307a3.363 3.363 0 0 0 -1.693.45 3 3 0 0 0 -1.158 1.1h-.075v-1.257h-1.618v9.017h1.693v-4.986a3.037 3.037 0 0 1 .661-1.941 2.09 2.09 0 0 1 1.712-.837q2.225 0 2.226 2.5v5.262h1.692v-5.515a4.1 4.1 0 0 0 -.883-2.76 3.183 3.183 0 0 0 -2.557-1.033z"/><path d="m152.357 16.109a4.952 4.952 0 0 0 -1.206-3.5 4.158 4.158 0 0 0 -3.211-1.306 4.032 4.032 0 0 0 -3.174 1.417 4.964 4.964 0 0 0 -1.242 3.385 4.826 4.826 0 0 0 1.281 3.442 4.344 4.344 0 0 0 3.32 1.36 4.23 4.23 0 0 0 2.484-.708 4.026 4.026 0 0 0 1.454-1.758l-1.508-.625a2.43 2.43 0 0 1 -2.466 1.545 2.766 2.766 0 0 1 -1.961-.791 3.062 3.062 0 0 1 -.909-2.154h7.119zm-1.8-1.085h-5.226a3 3 0 0 1 .948-1.583 2.431 2.431 0 0 1 1.628-.588 2.53 2.53 0 0 1 1.94.7 2.407 2.407 0 0 1 .71 1.472z"/><path d="m120.115 11.307a4.031 4.031 0 0 0 -3.175 1.417 4.964 4.964 0 0 0 -1.242 3.385 4.826 4.826 0 0 0 1.281 3.442 4.343 4.343 0 0 0 3.32 1.36 4.229 4.229 0 0 0 2.483-.708 4.042 4.042 0 0 0 1.455-1.758l-1.51-.625a2.427 2.427 0 0 1 -2.464 1.545 2.76 2.76 0 0 1 -1.961-.791 3.068 3.068 0 0 1 -.911-2.154h7.122l.018-.312a4.961 4.961 0 0 0 -1.205-3.5 4.162 4.162 0 0 0 -3.211-1.301zm2.612 3.717h-5.227a3.01 3.01 0 0 1 .946-1.583 2.438 2.438 0 0 1 1.63-.588 2.53 2.53 0 0 1 1.94.7 2.411 2.411 0 0 1 .709 1.472z"/><path d="m113.154 14.205a7.594 7.594 0 0 0 -1.323-.782 16.43 16.43 0 0 0 -1.63-.608 6.073 6.073 0 0 1 -1.868-.91 1.539 1.539 0 0 1 -.635-1.243 1.663 1.663 0 0 1 .69-1.352 2.615 2.615 0 0 1 1.667-.542 2.572 2.572 0 0 1 1.682.533 2.289 2.289 0 0 1 .82 1.16l1.545-.645a3.872 3.872 0 0 0 -1.362-1.83 4.233 4.233 0 0 0 -2.724-.837 4.1 4.1 0 0 0 -2.924 1.051 3.272 3.272 0 0 0 -1.123 2.465 2.983 2.983 0 0 0 .9 2.236 6.626 6.626 0 0 0 2.651 1.427 8.094 8.094 0 0 1 2.48 1.109 2.02 2.02 0 0 1 .781 1.7 1.854 1.854 0 0 1 -.781 1.576 3.087 3.087 0 0 1 -1.886.58 2.845 2.845 0 0 1 -1.922-.746 3.522 3.522 0 0 1 -1.132-1.83l-1.547.626a4.354 4.354 0 0 0 1.8 2.63 4.916 4.916 0 0 0 2.806.938 5.268 5.268 0 0 0 2.953-.9 3.228 3.228 0 0 0 1.05-1.2 3.636 3.636 0 0 0 .394-1.711 3.938 3.938 0 0 0 -.339-1.683 3.125 3.125 0 0 0 -1.023-1.212z"/><path d="m38.042 11.31a4.688 4.688 0 0 0 -4.73 4.8 4.731 4.731 0 1 0 9.461 0 4.688 4.688 0 0 0 -4.731-4.8zm0 7.709a2.755 2.755 0 0 1 -2.659-2.908 2.67 2.67 0 1 1 5.319 0 2.755 2.755 0 0 1 -2.66 2.908z"/><path d="m25.206 12.783v2.036h4.875a4.258 4.258 0 0 1 -1.11 2.564 4.991 4.991 0 0 1 -3.763 1.49 5.348 5.348 0 0 1 -5.348-5.417 5.35 5.35 0 0 1 5.348-5.419 5.187 5.187 0 0 1 3.672 1.455l1.438-1.436a7.108 7.108 0 0 0 -5.11-2.056 7.56 7.56 0 0 0 -7.565 7.456 7.559 7.559 0 0 0 7.563 7.454 6.821 6.821 0 0 0 5.2-2.09 6.727 6.727 0 0 0 1.763-4.765 6.453 6.453 0 0 0 -.11-1.272z"/><path d="m77.216 14.365a4.457 4.457 0 0 0 -4.109-3.055 4.509 4.509 0 0 0 -4.459 4.8 4.642 4.642 0 0 0 4.7 4.8 4.772 4.772 0 0 0 4-2.128l-1.636-1.09a2.745 2.745 0 0 1 -2.364 1.328 2.441 2.441 0 0 1 -2.328-1.454l6.419-2.655zm-6.546 1.6a2.634 2.634 0 0 1 2.51-2.8 1.858 1.858 0 0 1 1.781 1.017z"/><path d="m65.305 6.509h2.109v14.11h-2.109z"/><path d="m48.648 11.31a4.687 4.687 0 0 0 -4.729 4.8 4.73 4.73 0 1 0 9.459 0 4.686 4.686 0 0 0 -4.73-4.8zm0 7.709a2.755 2.755 0 0 1 -2.659-2.909 2.67 2.67 0 1 1 5.319 0 2.755 2.755 0 0 1 -2.66 2.909z"/><path d="m61.719 12.382h-.073a3.33 3.33 0 0 0 -2.528-1.073 4.8 4.8 0 0 0 0 9.6 3.273 3.273 0 0 0 2.528-1.091h.073v.691c0 1.836-.982 2.818-2.563 2.818a2.658 2.658 0 0 1 -2.419-1.709l-1.836.764a4.572 4.572 0 0 0 4.255 2.836c2.472 0 4.563-1.454 4.563-5v-8.618h-2zm.146 3.746a2.683 2.683 0 0 1 -2.565 2.891 2.755 2.755 0 0 1 -2.672-2.891 2.776 2.776 0 0 1 2.672-2.928 2.706 2.706 0 0 1 2.565 2.927z"/></g></svg>