<svg enable-background="new 0 0 300 300" viewBox="0 0 300 300" xmlns="http://www.w3.org/2000/svg"><g fill="#fff" opacity=".5"><circle cx="125.5" cy="130" r="13"/><path d="m174.929 134.071-30.929 30.929-6.293 6.293c-.391.391-1.024.391-1.414 0s-.391-1.024 0-1.414l6.293-6.293-9.515-9.515c-3.905-3.905-10.237-3.905-14.142 0l-23.929 23.929v12c0 1.654 1.346 3 3 3h104c1.654 0 3-1.346 3-3v-40l-15.929-15.929c-3.905-3.905-10.237-3.905-14.142 0z"/><path d="m202 100h-104c-5.5 0-10 4.5-10 10v80c0 5.5 4.5 10 10 10h104c5.5 0 10-4.5 10-10v-80c0-5.5-4.5-10-10-10zm6 90c0 3.309-2.691 6-6 6h-104c-3.309 0-6-2.691-6-6v-80c0-3.309 2.691-6 6-6h104c3.309 0 6 2.691 6 6z"/></g></svg>