<svg viewBox="0 0 220 145" xmlns="http://www.w3.org/2000/svg"><g fill="#fff" opacity=".1"><path d="m133.381 36.508a2.863 2.863 0 0 0 1.055.313l.544.041-.359.412a1.764 1.764 0 0 0 -.408 1.143 1.438 1.438 0 0 0 .564.985.919.919 0 0 0 .089.055 1.437 1.437 0 0 0 1.006.13 5.726 5.726 0 0 0 .433-3.554c-.191-.411-1.283-1.129-3.028-1.687a1.043 1.043 0 0 0 -.641.831 1.33 1.33 0 0 0 .745 1.331z"/><path d="m18.257 25.311a2.533 2.533 0 0 0 -1.389-.243 10.711 10.711 0 0 0 -2.079.241 1.039 1.039 0 0 0 -.155 1.032 1.331 1.331 0 0 0 1.3.8 2.867 2.867 0 0 0 1.075-.238l.5-.228-.115.535a1.774 1.774 0 0 0 .2 1.2 1.434 1.434 0 0 0 .971.588.822.822 0 0 0 .1 0 1.43 1.43 0 0 0 .942-.374 5.715 5.715 0 0 0 -1.35-3.313z"/><path d="m79.257 98.311a2.533 2.533 0 0 0 -1.389-.243 10.711 10.711 0 0 0 -2.079.241 1.039 1.039 0 0 0 -.155 1.032 1.331 1.331 0 0 0 1.3.8 2.867 2.867 0 0 0 1.075-.238l.5-.228-.115.535a1.774 1.774 0 0 0 .2 1.2 1.434 1.434 0 0 0 .971.588.822.822 0 0 0 .1 0 1.43 1.43 0 0 0 .942-.374 5.715 5.715 0 0 0 -1.35-3.313z"/><path d="m194.381 109.508a2.863 2.863 0 0 0 1.055.313l.544.041-.359.412a1.764 1.764 0 0 0 -.408 1.143 1.438 1.438 0 0 0 .564.985.919.919 0 0 0 .089.055 1.437 1.437 0 0 0 1.006.13 5.726 5.726 0 0 0 .433-3.554c-.191-.411-1.283-1.129-3.028-1.687a1.043 1.043 0 0 0 -.641.831 1.33 1.33 0 0 0 .745 1.331z"/><path d="m219.956 39.41.044.008v-39.418h-220v39.418c14.947 2.632 16.86 11.744 16.86 11.744.541 7.57-6.489 5.407-6.489 5.407a48.544 48.544 0 0 0 -10.371-2.821v91.252h220v-91.252c-9.667-1.492-16.126.658-16.126.658-8.652 3.786-12.977 1.623-12.977 1.623-4.829-.852-4.879-3.642-3.843-6.1a3.292 3.292 0 0 0 .6.07 3.662 3.662 0 0 0 2.865-1.522 19.526 19.526 0 0 0 7.95 1.662 19.256 19.256 0 0 0 8.741-2.041 3.832 3.832 0 0 0 3.155 1.9 2.67 2.67 0 0 0 2.262-1.049 3.98 3.98 0 0 0 .643-2.452 3.353 3.353 0 0 0 .676.068 3.512 3.512 0 0 0 1.887-.552 3.464 3.464 0 0 0 1.4-3.8 3.553 3.553 0 0 0 2.723-2.803zm-148.164-7.26a10.724 10.724 0 0 1 1.119-4.543 17.95 17.95 0 0 1 .793-9.769q.166-.482.366-.979c1.16-2.661 3.982-8.008 7.758-4.933a8.054 8.054 0 0 1 .865.689 23.152 23.152 0 0 1 4.7 6.97h.073a19.323 19.323 0 0 1 2.5.163c.292-.3.572-.573.827-.8 3.225-2.895 5.694-4.426 7.586-5.093a8.006 8.006 0 0 1 1.064-.3c4.672-1.372 5.2 4.65 5.242 7.553-.007.357-.021.706-.043 1.045a14.7 14.7 0 0 1 -2.023 6.909 10.556 10.556 0 0 1 .522 2.981c1.361.081 4.877.5 4.877 2.684 0 2.7-3.245 2.7-3.245 2.7a2.649 2.649 0 0 1 -.541 3.786 2.562 2.562 0 0 1 -3.244-.541s1.288 4.328-1.625 4.328c-1.277 0-2.188-1.087-2.8-2.233a18.684 18.684 0 0 1 -17.373.448 3.17 3.17 0 0 1 -2.538 1.785c-2.912 0-1.622-4.326-1.622-4.326a2.563 2.563 0 0 1 -3.245.541 2.648 2.648 0 0 1 -.54-3.786s-3.245 0-3.245-2.7c0-1.729 2.2-2.353 3.792-2.579zm-58.01 12.415c-2.494-2.345-6.482-4.724-12.782-5.971a11.172 11.172 0 0 1 2.718-7.578c4.823-6.249 13.305-7.841 15.126-6.513 1.663 1.214 3.553 7.872-.344 15.261a12.156 12.156 0 0 1 -4.718 4.801zm13.248 73.108a2.563 2.563 0 0 1 -3.245.541 2.648 2.648 0 0 1 -.54-3.786s-3.245 0-3.245-2.7c0-1.725 2.2-2.349 3.792-2.575a10.724 10.724 0 0 1 1.119-4.543 17.95 17.95 0 0 1 .793-9.769q.166-.481.366-.979c1.16-2.661 3.982-8.008 7.758-4.933a8.054 8.054 0 0 1 .865.689 23.152 23.152 0 0 1 4.7 6.97h.073a19.323 19.323 0 0 1 2.5.163c.292-.3.572-.573.827-.8 3.225-2.895 5.694-4.426 7.586-5.093a8.006 8.006 0 0 1 1.064-.3c4.672-1.372 5.2 4.65 5.242 7.553-.007.357-.021.706-.043 1.045a14.7 14.7 0 0 1 -2.023 6.909 10.556 10.556 0 0 1 .522 2.981c1.361.081 4.877.5 4.877 2.684 0 2.7-3.245 2.7-3.245 2.7a2.649 2.649 0 0 1 -.541 3.786 2.562 2.562 0 0 1 -3.244-.541s1.288 4.325-1.625 4.325c-1.277 0-2.188-1.087-2.8-2.233a18.684 18.684 0 0 1 -17.373.448 3.17 3.17 0 0 1 -2.538 1.785c-2.912 0-1.622-4.327-1.622-4.327zm44.341 11.9c-15.141-5.948-26.5-2.163-26.5-2.163-8.652 3.786-12.977 1.623-12.977 1.623-4.829-.852-4.879-3.642-3.843-6.1a3.292 3.292 0 0 0 .6.07 3.662 3.662 0 0 0 2.865-1.522 19.526 19.526 0 0 0 7.95 1.662 19.256 19.256 0 0 0 8.741-2.041 3.832 3.832 0 0 0 3.155 1.9 2.67 2.67 0 0 0 2.262-1.049 3.98 3.98 0 0 0 .643-2.452 3.353 3.353 0 0 0 .676.068 3.512 3.512 0 0 0 1.887-.552 3.464 3.464 0 0 0 1.4-3.8 3.553 3.553 0 0 0 2.727-2.805c14.988 2.621 16.9 11.752 16.9 11.752.543 7.568-6.486 5.405-6.486 5.405zm8.132-16.8a12.156 12.156 0 0 1 -4.721 4.8c-2.494-2.353-6.482-4.732-12.782-5.979a11.172 11.172 0 0 1 2.718-7.578c4.823-6.249 13.3-7.841 15.126-6.513 1.666 1.214 3.556 7.872-.344 15.261zm34.461-54.787c-5.408-5.948-11.436-4.062-14.6-2.163-1.352.811-2.957 2.745-4.056 3.515-6.152 4.312-7.03-1.082-7.03-1.082-3.387 2.54-5.546.845-6.183-.116-2.154-3.249-.638-9.16.548-12.6a19.922 19.922 0 0 0 4.824.612 19.263 19.263 0 0 0 8.742-2.052 3.831 3.831 0 0 0 3.154 1.9 2.67 2.67 0 0 0 2.262-1.049 3.979 3.979 0 0 0 .643-2.452 3.36 3.36 0 0 0 .676.069 3.518 3.518 0 0 0 1.887-.553 3.465 3.465 0 0 0 1.4-3.8 3.977 3.977 0 0 0 2.181-1.461 14.21 14.21 0 0 1 12.583 13.113s.171 16.033-7.031 8.11zm8.022-7.319c.008-.4.008-.7.006-.826a15.717 15.717 0 0 0 -1.834-6.267 14.4 14.4 0 0 0 -4.825-5.285 11.9 11.9 0 0 1 5.492-4.3c7.247-3.128 15.438-.408 16.387 1.636.866 1.869-.709 8.607-7.7 13.181a12.12 12.12 0 0 1 -7.526 1.852zm15.666 67.333c-2.912 0-1.622-4.326-1.622-4.326a2.563 2.563 0 0 1 -3.245.541 2.648 2.648 0 0 1 -.54-3.786s-3.245 0-3.245-2.7c0-1.725 2.2-2.349 3.792-2.575a10.724 10.724 0 0 1 1.119-4.543 17.95 17.95 0 0 1 .793-9.769q.166-.481.366-.979c1.16-2.661 3.982-8.008 7.758-4.933a8.054 8.054 0 0 1 .865.689 23.152 23.152 0 0 1 4.7 6.97h.073a19.323 19.323 0 0 1 2.5.163c.292-.3.572-.573.827-.8 3.225-2.895 5.694-4.426 7.586-5.093a8.006 8.006 0 0 1 1.064-.3c4.672-1.372 5.2 4.65 5.242 7.553-.007.357-.021.706-.043 1.045a14.7 14.7 0 0 1 -2.023 6.909 10.556 10.556 0 0 1 .522 2.981c1.361.081 4.877.5 4.877 2.684 0 2.7-3.245 2.7-3.245 2.7a2.649 2.649 0 0 1 -.541 3.786 2.562 2.562 0 0 1 -3.244-.541s1.29 4.326-1.623 4.326c-1.277 0-2.188-1.087-2.8-2.233a18.684 18.684 0 0 1 -17.373.448 3.17 3.17 0 0 1 -2.54 1.783zm37.312 12.978c-5.408-5.948-11.436-4.062-14.6-2.163-1.352.811-2.957 2.745-4.056 3.515-6.152 4.312-7.03-1.082-7.03-1.082-3.387 2.54-5.546.845-6.183-.116-2.154-3.249-.638-9.16.548-12.6a19.922 19.922 0 0 0 4.824.612 19.263 19.263 0 0 0 8.742-2.041 3.831 3.831 0 0 0 3.154 1.9 2.67 2.67 0 0 0 2.262-1.049 3.979 3.979 0 0 0 .643-2.452 3.36 3.36 0 0 0 .676.069 3.518 3.518 0 0 0 1.887-.553 3.465 3.465 0 0 0 1.4-3.8 3.977 3.977 0 0 0 2.181-1.461 14.21 14.21 0 0 1 12.583 13.113s.171 16.03-7.031 8.107zm23.248-22.365c.866 1.869-.709 8.607-7.7 13.181a12.12 12.12 0 0 1 -7.526 1.865c.008-.4.008-.7.006-.826a15.717 15.717 0 0 0 -1.834-6.267 14.4 14.4 0 0 0 -4.825-5.285 11.9 11.9 0 0 1 5.492-4.3c7.247-3.133 15.438-.413 16.387 1.631zm17.559-67.184a2.649 2.649 0 0 1 -.541 3.786 2.562 2.562 0 0 1 -3.244-.541s1.29 4.326-1.623 4.326c-1.277 0-2.188-1.087-2.8-2.233a18.684 18.684 0 0 1 -17.373.448 3.17 3.17 0 0 1 -2.538 1.785c-2.912 0-1.622-4.326-1.622-4.326a2.563 2.563 0 0 1 -3.245.541 2.648 2.648 0 0 1 -.54-3.786s-3.245 0-3.245-2.7c0-1.725 2.2-2.349 3.792-2.575a10.724 10.724 0 0 1 1.119-4.543 17.95 17.95 0 0 1 .793-9.769q.166-.482.366-.979c1.16-2.661 3.982-8.008 7.758-4.933a8.054 8.054 0 0 1 .865.689 23.152 23.152 0 0 1 4.7 6.97h.073a19.323 19.323 0 0 1 2.5.163c.292-.3.572-.573.827-.8 3.225-2.895 5.694-4.426 7.586-5.093a8.006 8.006 0 0 1 1.064-.3c4.672-1.372 5.2 4.65 5.242 7.553-.007.357-.021.706-.043 1.045a14.7 14.7 0 0 1 -2.023 6.909 10.556 10.556 0 0 1 .522 2.981c1.361.081 4.877.5 4.877 2.684-.002 2.697-3.247 2.697-3.247 2.697z"/></g></svg>