<svg enable-background="new 0 0 300 300" viewBox="0 0 300 300" xmlns="http://www.w3.org/2000/svg"><g fill="#fff"><path d="m174.929 134.071-30.929 30.929-6.293 6.293c-.391.391-1.024.391-1.414 0s-.391-1.024 0-1.414l6.293-6.293-9.515-9.515c-3.905-3.905-10.237-3.905-14.142 0l-23.429 23.429v10.5c0 2.206 1.794 4 4 4h101c2.206 0 4-1.794 4-4v-38.5l-15.429-15.429c-3.905-3.905-10.237-3.905-14.142 0z"/><path d="m200.5 100h-101c-6.6 0-12 5.4-12 12v76c0 6.6 5.4 12 12 12h101c6.6 0 12-5.4 12-12v-76c0-6.6-5.4-12-12-12zm6 88c0 3.309-2.691 6-6 6h-101c-3.309 0-6-2.691-6-6v-76c0-3.309 2.691-6 6-6h101c3.309 0 6 2.691 6 6z"/><circle cx="125.5" cy="130" r="13"/></g></svg>