<svg xmlns="http://www.w3.org/2000/svg" viewBox="0 0 220 145"><g opacity="0.1"><path d="M120.825,33.976a11.9,11.9,0,0,0-5.492,4.3,14.4,14.4,0,0,1,4.825,5.285,15.717,15.717,0,0,1,1.834,6.267c0,.129,0,.428-.006.826a12.12,12.12,0,0,0,7.526-1.865c6.991-4.574,8.566-11.312,7.7-13.181C136.263,33.568,128.072,30.848,120.825,33.976Zm15.047,5.611a1.437,1.437,0,0,1-1.006-.13.919.919,0,0,1-.089-.055,1.438,1.438,0,0,1-.564-.985,1.764,1.764,0,0,1,.408-1.143l.359-.412-.544-.041a2.863,2.863,0,0,1-1.055-.313,1.33,1.33,0,0,1-.745-1.331,1.043,1.043,0,0,1,.641-.831c1.745.558,2.837,1.276,3.028,1.687A5.726,5.726,0,0,1,135.872,39.587Z"/><path d="M106.229,38.214a3.465,3.465,0,0,1-1.4,3.8,3.518,3.518,0,0,1-1.887.553,3.36,3.36,0,0,1-.676-.069,3.979,3.979,0,0,1-.643,2.452A2.67,2.67,0,0,1,99.363,46a3.831,3.831,0,0,1-3.154-1.9,19.263,19.263,0,0,1-8.742,2.041,19.922,19.922,0,0,1-4.824-.612c-1.186,3.444-2.7,9.355-.548,12.6.637.961,2.8,2.656,6.183.116,0,0,.878,5.394,7.03,1.082,1.1-.77,2.7-2.7,4.056-3.515,3.164-1.9,9.192-3.785,14.6,2.163,7.2,7.922,7.029-8.111,7.029-8.111A14.21,14.21,0,0,0,108.41,36.753,3.977,3.977,0,0,1,106.229,38.214Z"/><path d="M165.831,115.014a3.518,3.518,0,0,1-1.887.553,3.36,3.36,0,0,1-.676-.069,3.979,3.979,0,0,1-.643,2.452A2.67,2.67,0,0,1,160.363,119a3.831,3.831,0,0,1-3.154-1.9,19.263,19.263,0,0,1-8.742,2.041,19.922,19.922,0,0,1-4.824-.612c-1.186,3.444-2.7,9.355-.548,12.6.637.961,2.8,2.656,6.183.116,0,0,.878,5.394,7.03,1.082,1.1-.77,2.7-2.7,4.056-3.515,3.164-1.9,9.192-3.785,14.6,2.163,7.2,7.922,7.029-8.111,7.029-8.111a14.21,14.21,0,0,0-12.583-13.113,3.977,3.977,0,0,1-2.181,1.461A3.465,3.465,0,0,1,165.831,115.014Z"/><path d="M64.721,104.016A11.172,11.172,0,0,0,62,111.594c6.3,1.247,10.285,3.626,12.779,5.971a12.156,12.156,0,0,0,4.721-4.8c3.9-7.389,2.007-14.047.344-15.261C78.026,96.175,69.544,97.767,64.721,104.016Zm11.068-5.707a10.711,10.711,0,0,1,2.079-.241,2.533,2.533,0,0,1,1.389.243,5.715,5.715,0,0,1,1.344,3.318,1.43,1.43,0,0,1-.942.374.822.822,0,0,1-.1,0,1.434,1.434,0,0,1-.971-.588,1.774,1.774,0,0,1-.2-1.2l.115-.535-.5.228a2.867,2.867,0,0,1-1.075.238,1.331,1.331,0,0,1-1.3-.8A1.039,1.039,0,0,1,75.789,98.309Z"/><path d="M165.683,94.106c-.04-2.9-.57-8.925-5.242-7.553a8.006,8.006,0,0,0-1.064.3c-1.892.667-4.361,2.2-7.586,5.093-.255.229-.535.5-.827.8a19.323,19.323,0,0,0-2.5-.163h-.073a23.152,23.152,0,0,0-4.7-6.97,8.054,8.054,0,0,0-.865-.689c-3.776-3.075-6.6,2.272-7.758,4.933q-.2.5-.366.979a17.95,17.95,0,0,0-.793,9.769,10.724,10.724,0,0,0-1.119,4.543c-1.594.226-3.792.85-3.792,2.575,0,2.7,3.245,2.7,3.245,2.7a2.648,2.648,0,0,0,.54,3.786,2.563,2.563,0,0,0,3.245-.541S134.74,118,137.652,118a3.17,3.17,0,0,0,2.54-1.785,18.684,18.684,0,0,0,17.373-.448c.61,1.146,1.521,2.233,2.8,2.233,2.913,0,1.623-4.326,1.623-4.326a2.562,2.562,0,0,0,3.244.541,2.649,2.649,0,0,0,.541-3.786s3.245,0,3.245-2.7c0-2.181-3.516-2.6-4.877-2.684a10.556,10.556,0,0,0-.522-2.981,14.7,14.7,0,0,0,2.023-6.909C165.662,94.812,165.676,94.463,165.683,94.106Z"/><path d="M219.016,38.725c0-2.181-3.516-2.6-4.877-2.684a10.556,10.556,0,0,0-.522-2.981,14.7,14.7,0,0,0,2.023-6.909c.022-.339.036-.688.043-1.045-.04-2.9-.57-8.925-5.242-7.553a8.006,8.006,0,0,0-1.064.3c-1.892.667-4.361,2.2-7.586,5.093-.255.229-.535.5-.827.8a19.323,19.323,0,0,0-2.5-.163h-.073a23.152,23.152,0,0,0-4.7-6.97,8.054,8.054,0,0,0-.865-.689c-3.776-3.075-6.6,2.272-7.758,4.933q-.2.5-.366.979a17.95,17.95,0,0,0-.793,9.769,10.724,10.724,0,0,0-1.119,4.543C181.2,36.376,179,37,179,38.725c0,2.7,3.245,2.7,3.245,2.7a2.648,2.648,0,0,0,.54,3.786,2.563,2.563,0,0,0,3.245-.541S184.74,49,187.652,49a3.17,3.17,0,0,0,2.54-1.785,18.684,18.684,0,0,0,17.373-.448c.61,1.146,1.521,2.233,2.8,2.233,2.913,0,1.623-4.326,1.623-4.326a2.562,2.562,0,0,0,3.244.541,2.649,2.649,0,0,0,.541-3.786S219.016,41.428,219.016,38.725Z"/><path d="M68,34.725c0,2.7,3.245,2.7,3.245,2.7a2.648,2.648,0,0,0,.54,3.786,2.563,2.563,0,0,0,3.245-.541S73.74,45,76.652,45a3.17,3.17,0,0,0,2.54-1.785,18.684,18.684,0,0,0,17.373-.448c.61,1.146,1.521,2.233,2.8,2.233,2.913,0,1.623-4.326,1.623-4.326a2.562,2.562,0,0,0,3.244.541,2.649,2.649,0,0,0,.541-3.786s3.245,0,3.245-2.7c0-2.181-3.516-2.6-4.877-2.684a10.556,10.556,0,0,0-.522-2.981,14.7,14.7,0,0,0,2.023-6.909c.022-.339.036-.688.043-1.045-.04-2.9-.57-8.925-5.242-7.553a8.006,8.006,0,0,0-1.064.3c-1.892.667-4.361,2.2-7.586,5.093-.255.229-.535.5-.827.8a19.323,19.323,0,0,0-2.5-.163h-.073a23.152,23.152,0,0,0-4.7-6.97,8.054,8.054,0,0,0-.865-.689c-3.776-3.075-6.6,2.272-7.758,4.933q-.2.5-.366.979a17.95,17.95,0,0,0-.793,9.769,10.724,10.724,0,0,0-1.119,4.543C70.2,32.376,68,33,68,34.725Z"/><path d="M20,111.725c0,2.7,3.245,2.7,3.245,2.7a2.648,2.648,0,0,0,.54,3.786,2.563,2.563,0,0,0,3.245-.541S25.74,122,28.652,122a3.17,3.17,0,0,0,2.54-1.785,18.684,18.684,0,0,0,17.373-.448c.61,1.146,1.521,2.233,2.8,2.233,2.913,0,1.623-4.326,1.623-4.326a2.562,2.562,0,0,0,3.244.541,2.649,2.649,0,0,0,.541-3.786s3.245,0,3.245-2.7c0-2.181-3.516-2.6-4.877-2.684a10.556,10.556,0,0,0-.522-2.981,14.7,14.7,0,0,0,2.023-6.909c.022-.339.036-.688.043-1.045-.04-2.9-.57-8.925-5.242-7.553a8.006,8.006,0,0,0-1.064.3c-1.892.667-4.361,2.2-7.586,5.093-.255.229-.535.5-.827.8a19.323,19.323,0,0,0-2.5-.163h-.073a23.152,23.152,0,0,0-4.7-6.97,8.054,8.054,0,0,0-.865-.689c-3.776-3.075-6.6,2.272-7.758,4.933q-.2.5-.366.979a17.95,17.95,0,0,0-.793,9.769,10.724,10.724,0,0,0-1.119,4.543C22.2,109.376,20,110,20,111.725Z"/><path d="M18.847,24.5c-1.821-1.328-10.3.264-15.126,6.513A11.172,11.172,0,0,0,1,38.594c6.3,1.247,10.285,3.626,12.779,5.971a12.156,12.156,0,0,0,4.721-4.8C22.4,32.375,20.51,25.717,18.847,24.5ZM18.659,29a.822.822,0,0,1-.1,0,1.434,1.434,0,0,1-.971-.588,1.774,1.774,0,0,1-.2-1.2l.115-.535-.5.228a2.867,2.867,0,0,1-1.075.238,1.331,1.331,0,0,1-1.3-.8,1.039,1.039,0,0,1,.155-1.032,10.711,10.711,0,0,1,2.079-.241,2.533,2.533,0,0,1,1.389.243A5.715,5.715,0,0,1,19.6,28.629,1.43,1.43,0,0,1,18.659,29Z"/><path d="M16.86,51.162S14.947,42.05,0,39.418v14.33a48.544,48.544,0,0,1,10.371,2.821S17.4,58.732,16.86,51.162Z"/><path d="M181.825,106.976a11.9,11.9,0,0,0-5.492,4.3,14.4,14.4,0,0,1,4.825,5.285,15.717,15.717,0,0,1,1.834,6.267c0,.129,0,.428-.006.826a12.12,12.12,0,0,0,7.526-1.865c6.991-4.574,8.566-11.312,7.7-13.181C197.263,106.568,189.072,103.848,181.825,106.976Zm15.047,5.611a1.437,1.437,0,0,1-1.006-.13.919.919,0,0,1-.089-.055,1.438,1.438,0,0,1-.564-.985,1.764,1.764,0,0,1,.408-1.143l.359-.412-.544-.041a2.863,2.863,0,0,1-1.055-.313,1.33,1.33,0,0,1-.745-1.331,1.043,1.043,0,0,1,.641-.831c1.745.558,2.837,1.276,3.028,1.687A5.726,5.726,0,0,1,196.872,112.587Z"/><path d="M217.229,42.215a3.464,3.464,0,0,1-1.4,3.8,3.512,3.512,0,0,1-1.887.552,3.353,3.353,0,0,1-.676-.068,3.98,3.98,0,0,1-.643,2.452A2.67,2.67,0,0,1,210.363,50a3.832,3.832,0,0,1-3.155-1.9,19.256,19.256,0,0,1-8.741,2.041,19.526,19.526,0,0,1-7.95-1.662A3.662,3.662,0,0,1,187.652,50a3.292,3.292,0,0,1-.6-.07c-1.036,2.458-.986,5.248,3.843,6.1,0,0,4.325,2.163,12.977-1.623,0,0,6.459-2.15,16.126-.658V39.418l-.044-.008A3.553,3.553,0,0,1,217.229,42.215Z"/><path d="M58.229,115.215a3.464,3.464,0,0,1-1.4,3.8,3.512,3.512,0,0,1-1.887.552,3.353,3.353,0,0,1-.676-.068,3.98,3.98,0,0,1-.643,2.452A2.67,2.67,0,0,1,51.363,123a3.832,3.832,0,0,1-3.155-1.9,19.256,19.256,0,0,1-8.741,2.041,19.526,19.526,0,0,1-7.95-1.662A3.662,3.662,0,0,1,28.652,123a3.292,3.292,0,0,1-.6-.07c-1.036,2.458-.986,5.248,3.843,6.1,0,0,4.325,2.163,12.977-1.623,0,0,11.356-3.785,26.5,2.163,0,0,7.03,2.163,6.489-5.407,0,0-1.916-9.131-16.9-11.752A3.553,3.553,0,0,1,58.229,115.215Z"/></g></svg>